<mxfile host="Electron" modified="2023-11-29T00:55:02.552Z" agent="Mozilla/5.0 (Windows NT 10.0; Win64; x64) AppleWebKit/537.36 (KHTML, like Gecko) draw.io/22.1.2 Chrome/114.0.5735.289 Electron/25.9.4 Safari/537.36" etag="a7YB7MRj6ET3-qVbSMtf" version="22.1.2" type="device">
  <diagram name="Страница — 1" id="wkuW8IYfJa-fDXTbTlXd">
    <mxGraphModel dx="1596" dy="868" grid="1" gridSize="10" guides="1" tooltips="1" connect="1" arrows="1" fold="1" page="1" pageScale="1" pageWidth="827" pageHeight="1169" math="0" shadow="0">
      <root>
        <mxCell id="0" />
        <mxCell id="1" parent="0" />
        <mxCell id="lY3IFhMyjRLX-TojKYxZ-2" value="Animal" style="swimlane;fontStyle=1;align=center;verticalAlign=top;childLayout=stackLayout;horizontal=1;startSize=26;horizontalStack=0;resizeParent=1;resizeParentMax=0;resizeLast=0;collapsible=1;marginBottom=0;whiteSpace=wrap;html=1;" parent="1" vertex="1">
          <mxGeometry x="265" y="140" width="297.67" height="190" as="geometry">
            <mxRectangle x="265" y="70" width="80" height="30" as="alternateBounds" />
          </mxGeometry>
        </mxCell>
        <mxCell id="lY3IFhMyjRLX-TojKYxZ-20" value="+ id: int" style="text;strokeColor=none;fillColor=none;align=left;verticalAlign=top;spacingLeft=4;spacingRight=4;overflow=hidden;rotatable=0;points=[[0,0.5],[1,0.5]];portConstraint=eastwest;whiteSpace=wrap;html=1;" parent="lY3IFhMyjRLX-TojKYxZ-2" vertex="1">
          <mxGeometry y="26" width="297.67" height="26" as="geometry" />
        </mxCell>
        <mxCell id="lY3IFhMyjRLX-TojKYxZ-3" value="+ name: string" style="text;strokeColor=none;fillColor=none;align=left;verticalAlign=top;spacingLeft=4;spacingRight=4;overflow=hidden;rotatable=0;points=[[0,0.5],[1,0.5]];portConstraint=eastwest;whiteSpace=wrap;html=1;" parent="lY3IFhMyjRLX-TojKYxZ-2" vertex="1">
          <mxGeometry y="52" width="297.67" height="26" as="geometry" />
        </mxCell>
        <mxCell id="lY3IFhMyjRLX-TojKYxZ-16" value="+ birthDate: string" style="text;strokeColor=none;fillColor=none;align=left;verticalAlign=top;spacingLeft=4;spacingRight=4;overflow=hidden;rotatable=0;points=[[0,0.5],[1,0.5]];portConstraint=eastwest;whiteSpace=wrap;html=1;" parent="lY3IFhMyjRLX-TojKYxZ-2" vertex="1">
          <mxGeometry y="78" width="297.67" height="26" as="geometry" />
        </mxCell>
        <mxCell id="lY3IFhMyjRLX-TojKYxZ-17" value="+ commands: List&amp;lt;string&amp;gt;" style="text;strokeColor=none;fillColor=none;align=left;verticalAlign=top;spacingLeft=4;spacingRight=4;overflow=hidden;rotatable=0;points=[[0,0.5],[1,0.5]];portConstraint=eastwest;whiteSpace=wrap;html=1;" parent="lY3IFhMyjRLX-TojKYxZ-2" vertex="1">
          <mxGeometry y="104" width="297.67" height="26" as="geometry" />
        </mxCell>
        <mxCell id="lY3IFhMyjRLX-TojKYxZ-4" value="" style="line;strokeWidth=1;fillColor=none;align=left;verticalAlign=middle;spacingTop=-1;spacingLeft=3;spacingRight=3;rotatable=0;labelPosition=right;points=[];portConstraint=eastwest;strokeColor=inherit;" parent="lY3IFhMyjRLX-TojKYxZ-2" vertex="1">
          <mxGeometry y="130" width="297.67" height="8" as="geometry" />
        </mxCell>
        <mxCell id="lY3IFhMyjRLX-TojKYxZ-15" value="+ learnCommand(command:string): bool&amp;nbsp;" style="text;strokeColor=none;fillColor=none;align=left;verticalAlign=top;spacingLeft=4;spacingRight=4;overflow=hidden;rotatable=0;points=[[0,0.5],[1,0.5]];portConstraint=eastwest;whiteSpace=wrap;html=1;" parent="lY3IFhMyjRLX-TojKYxZ-2" vertex="1">
          <mxGeometry y="138" width="297.67" height="26" as="geometry" />
        </mxCell>
        <mxCell id="lY3IFhMyjRLX-TojKYxZ-5" value="+ viewCommands(): String" style="text;strokeColor=none;fillColor=none;align=left;verticalAlign=top;spacingLeft=4;spacingRight=4;overflow=hidden;rotatable=0;points=[[0,0.5],[1,0.5]];portConstraint=eastwest;whiteSpace=wrap;html=1;" parent="lY3IFhMyjRLX-TojKYxZ-2" vertex="1">
          <mxGeometry y="164" width="297.67" height="26" as="geometry" />
        </mxCell>
        <mxCell id="lY3IFhMyjRLX-TojKYxZ-29" value="Extends" style="endArrow=block;endSize=16;endFill=0;html=1;rounded=0;exitX=0.539;exitY=0;exitDx=0;exitDy=0;entryX=0.097;entryY=1.115;entryDx=0;entryDy=0;entryPerimeter=0;exitPerimeter=0;" parent="1" source="lY3IFhMyjRLX-TojKYxZ-44" edge="1" target="lY3IFhMyjRLX-TojKYxZ-5">
          <mxGeometry x="-0.1489" y="17" width="160" relative="1" as="geometry">
            <mxPoint x="155.60000000000014" y="386.15999999999997" as="sourcePoint" />
            <mxPoint x="260" y="310" as="targetPoint" />
            <mxPoint as="offset" />
          </mxGeometry>
        </mxCell>
        <mxCell id="lY3IFhMyjRLX-TojKYxZ-30" value="Extends" style="endArrow=block;endSize=16;endFill=0;html=1;rounded=0;entryX=0.786;entryY=1.115;entryDx=0;entryDy=0;entryPerimeter=0;exitX=0.393;exitY=0.1;exitDx=0;exitDy=0;exitPerimeter=0;" parent="1" source="lY3IFhMyjRLX-TojKYxZ-45" target="lY3IFhMyjRLX-TojKYxZ-5" edge="1">
          <mxGeometry x="-0.2123" y="-23" width="160" relative="1" as="geometry">
            <mxPoint x="647.3" y="385.4699999999999" as="sourcePoint" />
            <mxPoint x="740" y="310" as="targetPoint" />
            <mxPoint as="offset" />
          </mxGeometry>
        </mxCell>
        <mxCell id="lY3IFhMyjRLX-TojKYxZ-42" value="Cat" style="swimlane;fontStyle=0;childLayout=stackLayout;horizontal=1;startSize=26;fillColor=none;horizontalStack=0;resizeParent=1;resizeParentMax=0;resizeLast=0;collapsible=1;marginBottom=0;whiteSpace=wrap;html=1;" parent="1" vertex="1" collapsed="1">
          <mxGeometry x="20" y="470" width="100" height="30" as="geometry">
            <mxRectangle x="100" y="320" width="140" height="52" as="alternateBounds" />
          </mxGeometry>
        </mxCell>
        <mxCell id="lY3IFhMyjRLX-TojKYxZ-43" value="Dog" style="swimlane;fontStyle=0;childLayout=stackLayout;horizontal=1;startSize=26;fillColor=none;horizontalStack=0;resizeParent=1;resizeParentMax=0;resizeLast=0;collapsible=1;marginBottom=0;whiteSpace=wrap;html=1;" parent="1" vertex="1" collapsed="1">
          <mxGeometry x="130" y="470" width="100" height="30" as="geometry">
            <mxRectangle x="100" y="320" width="140" height="52" as="alternateBounds" />
          </mxGeometry>
        </mxCell>
        <mxCell id="lY3IFhMyjRLX-TojKYxZ-44" value="Hamster" style="swimlane;fontStyle=0;childLayout=stackLayout;horizontal=1;startSize=26;fillColor=none;horizontalStack=0;resizeParent=1;resizeParentMax=0;resizeLast=0;collapsible=1;marginBottom=0;whiteSpace=wrap;html=1;" parent="1" vertex="1" collapsed="1">
          <mxGeometry x="240" y="470" width="100" height="30" as="geometry">
            <mxRectangle x="100" y="320" width="140" height="52" as="alternateBounds" />
          </mxGeometry>
        </mxCell>
        <mxCell id="lY3IFhMyjRLX-TojKYxZ-45" value="Horse" style="swimlane;fontStyle=0;childLayout=stackLayout;horizontal=1;startSize=26;fillColor=none;horizontalStack=0;resizeParent=1;resizeParentMax=0;resizeLast=0;collapsible=1;marginBottom=0;whiteSpace=wrap;html=1;" parent="1" vertex="1" collapsed="1">
          <mxGeometry x="462.67" y="470" width="100" height="30" as="geometry">
            <mxRectangle x="462.67" y="470" width="140" height="52" as="alternateBounds" />
          </mxGeometry>
        </mxCell>
        <mxCell id="lY3IFhMyjRLX-TojKYxZ-46" value="Camel" style="swimlane;fontStyle=0;childLayout=stackLayout;horizontal=1;startSize=26;fillColor=none;horizontalStack=0;resizeParent=1;resizeParentMax=0;resizeLast=0;collapsible=1;marginBottom=0;whiteSpace=wrap;html=1;" parent="1" vertex="1" collapsed="1">
          <mxGeometry x="570" y="470" width="100" height="30" as="geometry">
            <mxRectangle x="100" y="320" width="140" height="52" as="alternateBounds" />
          </mxGeometry>
        </mxCell>
        <mxCell id="lY3IFhMyjRLX-TojKYxZ-47" value="Donkey" style="swimlane;fontStyle=0;childLayout=stackLayout;horizontal=1;startSize=26;fillColor=none;horizontalStack=0;resizeParent=1;resizeParentMax=0;resizeLast=0;collapsible=1;marginBottom=0;whiteSpace=wrap;html=1;" parent="1" vertex="1" collapsed="1">
          <mxGeometry x="680" y="470" width="100" height="30" as="geometry">
            <mxRectangle x="100" y="320" width="140" height="52" as="alternateBounds" />
          </mxGeometry>
        </mxCell>
        <mxCell id="lY3IFhMyjRLX-TojKYxZ-60" value="«interface»&lt;br&gt;&lt;b&gt;IPet&lt;/b&gt;" style="html=1;whiteSpace=wrap;" parent="1" vertex="1">
          <mxGeometry x="125" y="580" width="110" height="50" as="geometry" />
        </mxCell>
        <mxCell id="lY3IFhMyjRLX-TojKYxZ-61" value="«interface»&lt;br&gt;&lt;b&gt;IPackAnimal&lt;/b&gt;" style="html=1;whiteSpace=wrap;" parent="1" vertex="1">
          <mxGeometry x="565" y="580" width="110" height="50" as="geometry" />
        </mxCell>
        <mxCell id="lY3IFhMyjRLX-TojKYxZ-62" value="" style="endArrow=block;dashed=1;endFill=0;endSize=12;html=1;rounded=0;exitX=0.5;exitY=1;exitDx=0;exitDy=0;" parent="1" source="lY3IFhMyjRLX-TojKYxZ-42" edge="1">
          <mxGeometry width="160" relative="1" as="geometry">
            <mxPoint x="30" y="440" as="sourcePoint" />
            <mxPoint x="120" y="600" as="targetPoint" />
            <Array as="points">
              <mxPoint x="70" y="600" />
            </Array>
          </mxGeometry>
        </mxCell>
        <mxCell id="lY3IFhMyjRLX-TojKYxZ-63" value="" style="endArrow=block;dashed=1;endFill=0;endSize=12;html=1;rounded=0;entryX=0.5;entryY=0;entryDx=0;entryDy=0;exitX=0.5;exitY=1;exitDx=0;exitDy=0;" parent="1" edge="1">
          <mxGeometry width="160" relative="1" as="geometry">
            <mxPoint x="179.5" y="500" as="sourcePoint" />
            <mxPoint x="179.5" y="580" as="targetPoint" />
          </mxGeometry>
        </mxCell>
        <mxCell id="lY3IFhMyjRLX-TojKYxZ-64" value="" style="endArrow=block;dashed=1;endFill=0;endSize=12;html=1;rounded=0;entryX=1;entryY=0.5;entryDx=0;entryDy=0;" parent="1" source="lY3IFhMyjRLX-TojKYxZ-44" target="lY3IFhMyjRLX-TojKYxZ-60" edge="1">
          <mxGeometry width="160" relative="1" as="geometry">
            <mxPoint x="230" y="444" as="sourcePoint" />
            <mxPoint x="267" y="390" as="targetPoint" />
            <Array as="points">
              <mxPoint x="290" y="605" />
            </Array>
          </mxGeometry>
        </mxCell>
        <mxCell id="lY3IFhMyjRLX-TojKYxZ-65" value="" style="endArrow=block;dashed=1;endFill=0;endSize=12;html=1;rounded=0;entryX=0;entryY=0.5;entryDx=0;entryDy=0;" parent="1" target="lY3IFhMyjRLX-TojKYxZ-61" edge="1">
          <mxGeometry width="160" relative="1" as="geometry">
            <mxPoint x="500" y="500" as="sourcePoint" />
            <mxPoint x="547" y="390" as="targetPoint" />
            <Array as="points">
              <mxPoint x="500" y="605" />
            </Array>
          </mxGeometry>
        </mxCell>
        <mxCell id="lY3IFhMyjRLX-TojKYxZ-66" value="" style="endArrow=block;dashed=1;endFill=0;endSize=12;html=1;rounded=0;entryX=0.373;entryY=-0.04;entryDx=0;entryDy=0;entryPerimeter=0;" parent="1" edge="1">
          <mxGeometry width="160" relative="1" as="geometry">
            <mxPoint x="619.5" y="500" as="sourcePoint" />
            <mxPoint x="619.5300000000002" y="578" as="targetPoint" />
          </mxGeometry>
        </mxCell>
        <mxCell id="lY3IFhMyjRLX-TojKYxZ-67" value="" style="endArrow=block;dashed=1;endFill=0;endSize=12;html=1;rounded=0;entryX=1;entryY=0.5;entryDx=0;entryDy=0;exitX=0.75;exitY=1;exitDx=0;exitDy=0;" parent="1" source="lY3IFhMyjRLX-TojKYxZ-47" target="lY3IFhMyjRLX-TojKYxZ-61" edge="1">
          <mxGeometry width="160" relative="1" as="geometry">
            <mxPoint x="711.5" y="444" as="sourcePoint" />
            <mxPoint x="748.5" y="390" as="targetPoint" />
            <Array as="points">
              <mxPoint x="755" y="605" />
            </Array>
          </mxGeometry>
        </mxCell>
        <mxCell id="ycBGr8FKYe8AKTXrL3-_-1" value="Extends" style="endArrow=block;endSize=16;endFill=0;html=1;rounded=0;exitX=0.5;exitY=0;exitDx=0;exitDy=0;entryX=1.008;entryY=0.885;entryDx=0;entryDy=0;entryPerimeter=0;" edge="1" parent="1" source="lY3IFhMyjRLX-TojKYxZ-46" target="lY3IFhMyjRLX-TojKYxZ-5">
          <mxGeometry x="-0.2123" y="-23" width="160" relative="1" as="geometry">
            <mxPoint x="562.67" y="483" as="sourcePoint" />
            <mxPoint x="580" y="320" as="targetPoint" />
            <mxPoint as="offset" />
            <Array as="points">
              <mxPoint x="620" y="327" />
            </Array>
          </mxGeometry>
        </mxCell>
        <mxCell id="ycBGr8FKYe8AKTXrL3-_-3" value="Extends" style="endArrow=block;endSize=16;endFill=0;html=1;rounded=0;exitX=0.35;exitY=-0.167;exitDx=0;exitDy=0;exitPerimeter=0;entryX=0.998;entryY=0;entryDx=0;entryDy=0;entryPerimeter=0;" edge="1" parent="1" source="lY3IFhMyjRLX-TojKYxZ-47" target="lY3IFhMyjRLX-TojKYxZ-15">
          <mxGeometry x="-0.2123" y="-23" width="160" relative="1" as="geometry">
            <mxPoint x="713" y="461" as="sourcePoint" />
            <mxPoint x="570" y="280" as="targetPoint" />
            <mxPoint as="offset" />
            <Array as="points">
              <mxPoint x="715" y="280" />
            </Array>
          </mxGeometry>
        </mxCell>
        <mxCell id="ycBGr8FKYe8AKTXrL3-_-4" value="Extends" style="endArrow=block;endSize=16;endFill=0;html=1;rounded=0;exitX=0.46;exitY=-0.2;exitDx=0;exitDy=0;exitPerimeter=0;" edge="1" parent="1" source="lY3IFhMyjRLX-TojKYxZ-43">
          <mxGeometry x="-0.1489" y="17" width="160" relative="1" as="geometry">
            <mxPoint x="178.5" y="457" as="sourcePoint" />
            <mxPoint x="260" y="320" as="targetPoint" />
            <mxPoint as="offset" />
            <Array as="points">
              <mxPoint x="176" y="320" />
            </Array>
          </mxGeometry>
        </mxCell>
        <mxCell id="ycBGr8FKYe8AKTXrL3-_-5" value="Extends" style="endArrow=block;endSize=16;endFill=0;html=1;rounded=0;exitX=0.35;exitY=-0.1;exitDx=0;exitDy=0;entryX=-0.007;entryY=0.192;entryDx=0;entryDy=0;entryPerimeter=0;exitPerimeter=0;" edge="1" parent="1" source="lY3IFhMyjRLX-TojKYxZ-42" target="lY3IFhMyjRLX-TojKYxZ-15">
          <mxGeometry x="-0.1489" y="17" width="160" relative="1" as="geometry">
            <mxPoint x="50" y="456" as="sourcePoint" />
            <mxPoint x="145" y="300" as="targetPoint" />
            <mxPoint as="offset" />
            <Array as="points">
              <mxPoint x="55" y="283" />
            </Array>
          </mxGeometry>
        </mxCell>
      </root>
    </mxGraphModel>
  </diagram>
</mxfile>
